<svg id="Layer_1" data-name="Layer 1" xmlns="http://www.w3.org/2000/svg" viewBox="0 0 219.24 129.71"><defs><style>.cls-1{fill:#00b1e8;}.cls-2{fill:#132035;}</style></defs><path class="cls-1" d="M215.48,64.69c.76,32.23-25.79,60.7-60.43,60.51C120.66,125,93.93,99.2,93.91,64,93.89,29,123.14,3.34,156,3.7,189.28,4.07,216.7,32.75,215.48,64.69ZM155,94.54c13.53,1.2,30.53-10.74,30.41-30.15-.09-16.76-12.92-30.71-30.92-30.47-16.7.23-29.88,13.11-30.13,30.71C124.14,80.13,138.78,95.91,155,94.54Z"/><path class="cls-2" d="M81.47,39.92A32.52,32.52,0,0,0,55,35.58,26.76,26.76,0,0,0,39.87,45.5c-8.62,11.59-9.07,26.39-1,36.55C44,88.49,50.4,93,58.82,94.22c8.26,1.15,15.75-1.07,22.64-5.36L96.33,114.8C80,129.16,44.2,130.64,21.42,108.92c-25.59-24.39-25.91-63.54-1-88.17s62.27-19.68,76-6.68C91.49,22.49,86.66,30.9,81.47,39.92Z"/></svg>