<svg id="Layer_1" data-name="Layer 1" xmlns="http://www.w3.org/2000/svg" viewBox="0 0 50 40"><defs><style>.cls-1{fill:#4ec7ea;}.cls-2{fill:#0f1e32;}</style></defs><path class="cls-1" d="M35.79,29.36A14.07,14.07,0,0,1,21.6,15.13a14.2,14.2,0,0,1,28.4.13A14.07,14.07,0,0,1,35.79,29.36Zm0-21.31a7.17,7.17,0,0,0-7.32,7.21,7.28,7.28,0,0,0,7.26,7.21,7.36,7.36,0,0,0,7.33-7.26A7.18,7.18,0,0,0,35.83,8.05Z"/><path class="cls-2" d="M18.71,9.42C14,7.53,11,7.94,8.77,10.74a7.21,7.21,0,0,0-.34,8.51,7.09,7.09,0,0,0,4.75,3A8,8,0,0,0,18.66,21c.17.34.3.6.45.85.85,1.49,1.65,3,2.6,4.45.47.71.36,1-.33,1.39A14.31,14.31,0,0,1,.05,16.45,13.64,13.64,0,0,1,6.54,3.24c4.66-3,9.59-3.1,14.56-.62,1.23.62,1.15.63.44,1.75-.89,1.39-1.65,2.86-2.45,4.3C19,8.9,18.85,9.14,18.71,9.42Z"/></svg>