<svg width="10" height="5" viewBox="0 0 10 5" fill="none" xmlns="http://www.w3.org/2000/svg">
<path d="M8.64511 0.182727L4.99968 3.09907L1.35426 0.182727C1.2688 0.114337 1.17071 0.0634504 1.06558 0.0329708C0.960457 0.00249125 0.850358 -0.00698395 0.741571 0.00508631C0.632784 0.0171566 0.527439 0.0505358 0.431552 0.103318C0.335665 0.156101 0.251113 0.227253 0.182724 0.312712C0.114335 0.398171 0.0634475 0.496264 0.0329679 0.601389C0.00248837 0.706514 -0.00698677 0.816613 0.0050835 0.925401C0.0171538 1.03419 0.0505331 1.13953 0.103316 1.23542C0.156098 1.33131 0.22725 1.41586 0.312709 1.48425L4.47891 4.81721C4.6267 4.93553 4.81037 5 4.99968 5C5.189 5 5.37267 4.93553 5.52046 4.81721L9.68666 1.48425C9.85925 1.34613 9.96991 1.14511 9.99429 0.925401C10.0187 0.705695 9.95476 0.485304 9.81665 0.312712C9.74826 0.227253 9.6637 0.156101 9.56782 0.103318C9.47193 0.0505358 9.36659 0.0171566 9.2578 0.00508631C9.03809 -0.0192907 8.8177 0.0446085 8.64511 0.182727Z" fill="#3B4452"/>
</svg>
