<svg width="204" height="40" viewBox="0 0 204 40" fill="none" xmlns="http://www.w3.org/2000/svg">
<path d="M14.6528 24.5902C13.6844 25.306 12.5054 25.7271 11.2001 25.7271C8.04219 25.7271 5.47375 23.1587 5.47375 20.0007C5.47375 16.8428 8.04219 14.2743 11.2001 14.2743C12.5054 14.2743 13.6844 14.6954 14.6528 15.4112C15.2423 13.6428 16.2107 12.0006 17.3897 10.6111C15.6212 9.43217 13.4738 8.75848 11.2001 8.75848C5.01058 8.75848 0 13.7691 0 19.9586C0 26.1482 5.01058 31.1587 11.2001 31.1587C13.4738 31.1587 15.6212 30.4851 17.3897 29.3061C16.2107 27.9587 15.2423 26.3587 14.6528 24.5902Z" fill="#3B4452"/>
<path d="M48.2954 11.8741C48.4638 11.6635 48.7165 11.3688 49.0112 11.032C49.3059 10.6951 50.0217 10.232 51.0744 9.68458C52.127 9.0951 53.2639 8.84247 54.4428 8.84247C56.885 8.84247 58.906 9.68459 60.464 11.4109C62.0219 13.0951 62.7798 15.411 62.7798 18.3163V30.8638H56.8429V18.9057C56.8429 17.6005 56.4639 16.5478 55.6639 15.7057C54.8639 14.9057 53.8955 14.4846 52.6323 14.4846C51.2849 14.4846 50.2323 14.9057 49.4323 15.7899C48.6322 16.6741 48.2533 17.9373 48.2533 19.5373V30.7374H42.3164V9.22142H48.2954V11.8741Z" fill="#3B4452"/>
<path d="M69.3907 2.90527H74.6539V9.72641H79.0329V14.9896H74.6539V23.5371C74.6539 24.2108 74.9066 24.8003 75.4118 25.2634C75.9171 25.7266 76.5487 25.9792 77.3066 25.9792C77.6855 25.9792 78.0645 25.9371 78.4434 25.8529C78.8224 25.7687 79.075 25.6845 79.2856 25.6003L79.5382 25.5161V30.5687C78.3592 31.0319 77.0539 31.2424 75.5802 31.2003C71.0328 31.2003 68.7591 28.7161 68.7591 23.7476V14.9896H65.0117V9.72641H66.9907C67.6644 9.72641 68.2539 9.47376 68.717 8.92639C69.1802 8.37901 69.4328 7.70532 69.4328 6.86321V2.90527H69.3907Z" fill="#3B4452"/>
<path d="M88.8432 30.7793H82.9063V9.22116H88.8432V30.7793ZM89.2222 3.36846C89.2222 5.22111 87.7064 6.69481 85.8537 6.69481C84.0011 6.69481 82.5273 5.17901 82.5273 3.36846C82.5273 1.51581 84.0432 0 85.8537 0C87.7064 0 89.2222 1.51581 89.2222 3.36846Z" fill="#3B4452"/>
<path d="M98.2739 11.8739C98.4424 11.6634 98.695 11.3686 98.9897 11.0318C99.2845 10.6949 100 10.2318 101.053 9.6844C102.106 9.09492 103.242 8.84229 104.421 8.84229C106.864 8.84229 108.885 9.6844 110.443 11.4107C112 13.095 112.758 15.4108 112.758 18.3161V30.8636H106.821V18.9056C106.821 17.6003 106.442 16.5476 105.642 15.7055C104.842 14.9055 103.874 14.4845 102.611 14.4845C101.263 14.4845 100.211 14.9055 99.4108 15.7897C98.6108 16.674 98.2318 17.9371 98.2318 19.5371V30.7373H92.2949V9.22123H98.2318L98.2739 11.8739Z" fill="#3B4452"/>
<path d="M131.959 27.2842C131.917 27.3684 131.833 27.4948 131.707 27.6211C131.58 27.7474 131.328 28 130.949 28.3369C130.57 28.6737 130.149 29.0106 129.685 29.2632C129.222 29.5579 128.633 29.8106 127.917 30.0211C127.159 30.2316 126.401 30.3579 125.643 30.3579C123.201 30.3579 120.97 29.3053 118.948 27.1579C116.97 25.0105 115.959 22.4842 115.959 19.5789C115.959 16.6736 116.97 14.1472 118.948 11.9998C120.927 9.85245 123.159 8.7998 125.643 8.7998C126.864 8.7998 128.043 9.05243 129.096 9.5577C130.149 10.063 130.907 10.5682 131.37 11.0735L132.043 11.8735V9.22086H137.98V29.0106C137.98 32.1264 136.886 34.7369 134.738 36.8422C132.591 38.9475 129.854 40.0002 126.57 40.0002C125.349 40.0002 124.17 39.8317 123.033 39.537C121.896 39.2001 120.97 38.8212 120.212 38.4001C119.454 37.9791 118.822 37.5159 118.275 37.0528C117.727 36.5896 117.306 36.2106 117.096 35.8738L116.675 35.3685L120.422 31.8316C120.548 32.0422 120.801 32.2948 121.096 32.6316C121.391 32.9685 122.064 33.3896 123.075 33.8948C124.085 34.4001 125.222 34.6948 126.401 34.6948C128.17 34.6948 129.559 34.1896 130.57 33.179C131.58 32.1685 132.085 30.779 132.085 29.0106V27.2842H131.959ZM123.454 23.3684C124.38 24.3789 125.517 24.8842 126.906 24.8842C128.296 24.8842 129.433 24.3789 130.443 23.3263C131.454 22.2736 131.959 21.0526 131.959 19.5789C131.959 18.1052 131.454 16.8841 130.443 15.8315C129.433 14.8209 128.254 14.3157 126.906 14.3157C125.559 14.3157 124.422 14.8209 123.454 15.7894C122.527 16.7999 122.064 18.0631 122.064 19.5789C122.064 21.0947 122.527 22.3579 123.454 23.3684Z" fill="#3B4452"/>
<path d="M147.203 21.9789C147.414 23.1579 148.045 24.1263 149.056 24.9684C150.066 25.7684 151.371 26.1895 152.887 26.1895C154.024 26.1895 155.035 25.979 156.003 25.5158C156.972 25.0947 157.603 24.6316 158.024 24.2105L158.656 23.5368L161.729 27.4947L161.351 27.8737C161.182 28.0421 160.803 28.3369 160.214 28.8C159.624 29.2211 158.993 29.6 158.361 29.9369C157.687 30.2737 156.845 30.5685 155.793 30.8211C154.74 31.0737 153.645 31.2001 152.55 31.2001C149.392 31.2001 146.698 30.1053 144.466 27.9158C142.235 25.7263 141.098 23.0737 141.098 19.9999C141.098 16.9262 142.192 14.2735 144.424 12.084C146.613 9.89455 149.266 8.7998 152.34 8.7998C155.414 8.7998 157.982 9.81034 160.003 11.8735C162.066 13.9367 163.077 16.5052 163.077 19.5789L162.866 21.9789H147.203ZM149.056 14.9894C148.171 15.7052 147.54 16.6736 147.203 17.8525H157.098C156.887 16.7157 156.34 15.7472 155.456 15.0314C154.571 14.2735 153.519 13.8946 152.256 13.8946C150.993 13.8946 149.94 14.2315 149.056 14.9894Z" fill="#3B4452"/>
<path d="M172.17 11.8739C172.339 11.6634 172.591 11.3686 172.886 11.0318C173.181 10.6949 173.897 10.2318 174.949 9.6844C176.002 9.09492 177.139 8.84229 178.318 8.84229C180.76 8.84229 182.781 9.6844 184.339 11.4107C185.897 13.095 186.655 15.4108 186.655 18.3161V30.8636H180.718V18.9056C180.718 17.6003 180.339 16.5476 179.539 15.7055C178.739 14.9055 177.77 14.4845 176.507 14.4845C175.16 14.4845 174.107 14.9055 173.307 15.7897C172.507 16.674 172.128 17.9371 172.128 19.5371V30.7373H166.191V9.22123H172.128V11.8739H172.17Z" fill="#3B4452"/>
<path d="M193.35 2.90527H198.613V9.72641H202.992V14.9896H198.613V23.5371C198.613 24.2108 198.866 24.8003 199.371 25.2634C199.876 25.7266 200.508 25.9792 201.266 25.9792C201.645 25.9792 202.023 25.9371 202.402 25.8529C202.781 25.7687 203.034 25.6845 203.245 25.6003L203.497 25.5161V30.5687C202.318 31.0319 201.013 31.2424 199.539 31.2003C194.992 31.2003 192.718 28.7161 192.718 23.7476V14.9896H188.971V9.72641H190.95C191.623 9.72641 192.213 9.47376 192.676 8.92639C193.139 8.37901 193.392 7.70532 193.392 6.86321V2.90527H193.35Z" fill="#3B4452"/>
<path d="M28.1259 8.7998C21.9364 8.7998 16.9258 13.8104 16.9258 19.9999C16.9258 26.1895 21.9364 31.2001 28.1259 31.2001C34.3155 31.2001 39.326 26.1895 39.326 19.9999C39.326 13.8104 34.3155 8.7998 28.1259 8.7998ZM28.1259 25.7263C24.968 25.7263 22.3995 23.1579 22.3995 19.9999C22.3995 16.842 24.968 14.2736 28.1259 14.2736C31.2838 14.2736 33.8523 16.842 33.8523 19.9999C33.8523 23.1579 31.2838 25.7263 28.1259 25.7263Z" fill="url(#paint0_linear_1_24)"/>
<defs>
<linearGradient id="paint0_linear_1_24" x1="21.195" y1="10.4079" x2="36.0617" y2="30.9754" gradientUnits="userSpaceOnUse">
<stop stop-color="#23AFFF"/>
<stop offset="0.3436" stop-color="#36BDF6"/>
<stop offset="1" stop-color="#64DFDF"/>
</linearGradient>
</defs>
</svg>
