<svg width="12" height="12" viewBox="0 0 12 12" fill="none" xmlns="http://www.w3.org/2000/svg">
<path d="M10.6398 2.39977C10.3744 2.11524 10.0533 1.88836 9.69653 1.73323C9.33972 1.5781 8.95482 1.49805 8.56575 1.49805C8.17669 1.49805 7.79178 1.5781 7.43498 1.73323C7.07818 1.88836 6.75711 2.11524 6.49175 2.39977C6.29457 2.61385 6.1289 2.85494 5.99975 3.11577C5.87054 2.85473 5.70452 2.61361 5.50675 2.39977C5.24124 2.11551 4.92012 1.88886 4.56334 1.7339C4.20656 1.57894 3.82173 1.49898 3.43275 1.49898C3.04377 1.49898 2.65895 1.57894 2.30217 1.7339C1.94539 1.88886 1.62427 2.11551 1.35875 2.39977C0.806968 2.98979 0.5 3.76744 0.5 4.57527C0.5 5.3831 0.806968 6.16075 1.35875 6.75077L5.99975 11.4998L10.6398 6.75177C11.1929 6.16226 11.5008 5.38419 11.5008 4.57577C11.5008 3.76736 11.1929 2.98929 10.6398 2.39977Z" stroke="#3B4452" stroke-linecap="round" stroke-linejoin="round"/>
</svg>
